<?xml version="1.0" encoding="utf-8"?>
<!-- Generator: Adobe Illustrator 18.0.0, SVG Export Plug-In . SVG Version: 6.00 Build 0)  -->
<!DOCTYPE svg PUBLIC "-//W3C//DTD SVG 1.1//EN" "http://www.w3.org/Graphics/SVG/1.1/DTD/svg11.dtd">
<svg version="1.1" id="Laag_1" xmlns="http://www.w3.org/2000/svg" xmlns:xlink="http://www.w3.org/1999/xlink" x="0px" y="0px"
	 viewBox="0 0 467 467.5" enable-background="new 0 0 467 467.5" xml:space="preserve">
<path fill="#FFFFFF" d="M233.5,0.5C93.4,0.5,0,105,0,234s104.5,233.5,233.5,233.5S467,362.9,467,234S372.9,0.5,233.5,0.5z
	 M233.5,450.5C113.9,450.5,17,353.5,17,234S102.8,17.5,233.5,17.5c130,0,216.5,96.9,216.5,216.5S353.1,450.5,233.5,450.5z"/>
<path fill="#0769B3" d="M216.3,18.5c4.9-0.3,13.3-0.6,16.7-0.6c4.4,0,10.1,0.1,16.7,0.5v-18C244.2,0.1,238.9,0,233,0
	c-6,0-9.8,0.1-16.7,0.5V18.5z"/>
</svg>
