<?xml version="1.0" encoding="utf-8"?>
<!-- Generator: Adobe Illustrator 18.0.0, SVG Export Plug-In . SVG Version: 6.00 Build 0)  -->
<!DOCTYPE svg PUBLIC "-//W3C//DTD SVG 1.1//EN" "http://www.w3.org/Graphics/SVG/1.1/DTD/svg11.dtd">
<svg version="1.1" id="Laag_1" xmlns="http://www.w3.org/2000/svg" xmlns:xlink="http://www.w3.org/1999/xlink" x="0px" y="0px"
	 viewBox="0 0 39 39" enable-background="new 0 0 39 39" xml:space="preserve">
<g>
	<path fill-rule="evenodd" clip-rule="evenodd" fill="#FFFFFF" d="M19.5,9C13.7,9,9,13.7,9,19.5S13.7,30,19.5,30S30,25.3,30,19.5
		S25.3,9,19.5,9z M19.5,27c-4.1,0-7.5-3.4-7.5-7.5s3.4-7.5,7.5-7.5s7.5,3.4,7.5,7.5S23.6,27,19.5,27z"/>
	<g>
		<path fill-rule="evenodd" clip-rule="evenodd" fill="#FFFFFF" d="M19.5,0C18.7,0,18,0.7,18,1.5v3C18,5.3,18.7,6,19.5,6
			S21,5.3,21,4.5v-3C21,0.7,20.3,0,19.5,0z"/>
		<path fill-rule="evenodd" clip-rule="evenodd" fill="#FFFFFF" d="M19.5,33c-0.8,0-1.5,0.7-1.5,1.5v3c0,0.8,0.7,1.5,1.5,1.5
			s1.5-0.7,1.5-1.5v-3C21,33.7,20.3,33,19.5,33z"/>
	</g>
	<g>
		<path fill-rule="evenodd" clip-rule="evenodd" fill="#FFFFFF" d="M33.3,5.7c-0.6-0.6-1.5-0.6-2.1,0L29,7.8c-0.6,0.6-0.6,1.5,0,2.1
			c0.6,0.6,1.5,0.6,2.1,0l2.1-2.1C33.9,7.2,33.9,6.3,33.3,5.7z"/>
		<path fill-rule="evenodd" clip-rule="evenodd" fill="#FFFFFF" d="M10,29c-0.6-0.6-1.5-0.6-2.1,0l-2.1,2.1c-0.6,0.6-0.6,1.5,0,2.1
			c0.6,0.6,1.5,0.6,2.1,0l2.1-2.1C10.5,30.6,10.5,29.6,10,29z"/>
	</g>
	<g>
		<path fill-rule="evenodd" clip-rule="evenodd" fill="#FFFFFF" d="M0,19.5C0,20.3,0.7,21,1.5,21h3C5.3,21,6,20.3,6,19.5
			S5.3,18,4.5,18h-3C0.7,18,0,18.7,0,19.5z"/>
		<path fill-rule="evenodd" clip-rule="evenodd" fill="#FFFFFF" d="M33,19.5c0,0.8,0.7,1.5,1.5,1.5h3c0.8,0,1.5-0.7,1.5-1.5
			S38.3,18,37.5,18h-3C33.7,18,33,18.7,33,19.5z"/>
	</g>
	<g>
		<path fill-rule="evenodd" clip-rule="evenodd" fill="#FFFFFF" d="M5.7,5.7c-0.6,0.6-0.6,1.5,0,2.1L7.8,10c0.6,0.6,1.5,0.6,2.1,0
			c0.6-0.6,0.6-1.5,0-2.1L7.8,5.7C7.2,5.1,6.3,5.1,5.7,5.7z"/>
		<path fill-rule="evenodd" clip-rule="evenodd" fill="#FFFFFF" d="M29,29c-0.6,0.6-0.6,1.5,0,2.1l2.1,2.1c0.6,0.6,1.5,0.6,2.1,0
			c0.6-0.6,0.6-1.5,0-2.1L31.2,29C30.6,28.5,29.6,28.5,29,29z"/>
	</g>
</g>
</svg>
