<?xml version="1.0" encoding="utf-8"?>
<!-- Generator: Adobe Illustrator 18.0.0, SVG Export Plug-In . SVG Version: 6.00 Build 0)  -->
<!DOCTYPE svg PUBLIC "-//W3C//DTD SVG 1.1//EN" "http://www.w3.org/Graphics/SVG/1.1/DTD/svg11.dtd">
<svg version="1.1" id="Laag_1" xmlns="http://www.w3.org/2000/svg" xmlns:xlink="http://www.w3.org/1999/xlink" x="0px" y="0px"
	 viewBox="-297.6 544.3 595.3 595.3" enable-background="new -297.6 544.3 595.3 595.3" xml:space="preserve">
<path fill="#FFFFFF" d="M167.4,730.3c-6.2,0-12.4,0-18.6,1.2c-34.7-47.1-89.3-75.7-148.8-75.7s-114.2,28.6-148.9,75.8
	c-6.2-1.2-12.4-1.2-18.6-1.2c-71.9-0.1-130.2,58.2-130.2,130.1s58.3,130.2,130.2,130.2c16.1,0,31-2.5,45.9-8.7
	c33.5,29.8,76.9,45.9,121.5,45.9S88,1011.8,121.4,982c14.9,6.2,29.8,8.7,45.9,8.7c71.9,0,130.2-58.3,130.2-130.2
	S239.3,730.3,167.4,730.3z M167.4,953.6c-19.8,0-38.4-6.2-53.3-17.4c-27.3,33.5-68.2,54.6-114.1,54.6s-86.8-21.1-114.1-54.6
	c-14.9,11.2-33.5,17.4-53.3,17.4c-50.8,0-93-42.2-93-93c0-50.8,42.2-93,93-93c12.4,0,24.8,2.5,36,7.4
	c24.8-48.4,74.4-81.9,131.5-81.9c58.3,0,107.9,33.5,131.5,81.9c11.2-5,23.6-7.4,36-7.4c50.8,0,93,42.2,93,93
	C260.6,911.4,218.2,953.6,167.4,953.6z"/>
</svg>
