<?xml version="1.0" encoding="utf-8"?>
<!-- Generator: Adobe Illustrator 18.0.0, SVG Export Plug-In . SVG Version: 6.00 Build 0)  -->
<!DOCTYPE svg PUBLIC "-//W3C//DTD SVG 1.1//EN" "http://www.w3.org/Graphics/SVG/1.1/DTD/svg11.dtd">
<svg version="1.1" id="Laag_1" xmlns="http://www.w3.org/2000/svg" xmlns:xlink="http://www.w3.org/1999/xlink" x="0px" y="0px"
	 viewBox="0 -9.9 48 48" enable-background="new 0 0 48 48" xml:space="preserve">
<g>
	<path fill="#FFFFFF" d="M48,12.6c0-4.6-3.8-8.4-8.4-8.4c-0.2,0-0.4,0-0.7,0C36.8,1.6,33.5,0,30,0c-3.5,0-6.8,1.6-9,4.3
		c-0.2,0-0.4,0-0.7,0C15.8,4.3,12,8,12,12.6c0,0.5,0.1,0.9,0.1,1.4c-0.1,0.1-0.1,0.1-0.2,0.2c-0.5-0.1-1-0.1-1.5-0.1
		C4.7,14.1,0,18.9,0,24.6s4.7,10.5,10.5,10.5c1.3,0,2.5-0.2,3.7-0.7c2.7,2.4,6.2,3.7,9.8,3.7c3.6,0,7.1-1.3,9.8-3.7
		c1.2,0.5,2.4,0.7,3.7,0.7c5.8,0,10.5-4.7,10.5-10.5c0-2.4-0.8-4.6-2.2-6.4C47.1,16.8,48,14.8,48,12.6z M37.5,32.1
		c-1.6,0-3.1-0.5-4.3-1.4c-2.2,2.7-5.5,4.4-9.2,4.4c-3.7,0-7-1.7-9.2-4.4c-1.2,0.9-2.7,1.4-4.3,1.4c-4.1,0-7.5-3.4-7.5-7.5
		s3.4-7.5,7.5-7.5c1,0,2,0.2,2.9,0.6c0.1-0.1,0.1-0.2,0.2-0.3c0.5-1,1.2-1.8,1.9-2.6c2.2-2.2,5.2-3.7,8.5-3.7
		c4.7,0,8.7,2.7,10.6,6.6c0.5-0.2,1.1-0.4,1.7-0.5l1.2-0.1c1.2,0,2.2,0.3,3.2,0.8c1.1,0.5,2,1.3,2.7,2.2c1,1.3,1.6,2.8,1.6,4.6
		C45,28.8,41.6,32.1,37.5,32.1z M43.6,16.2c-1.7-1.3-3.8-2-6.1-2c-0.5,0-1,0-1.5,0.1c-2.8-3.8-7.2-6.1-12-6.1c-3.2,0-6.2,1-8.7,2.8
		C16,8.8,18,7.3,20.4,7.3c0.7,0,1.4,0.1,2,0.4C23.8,4.9,26.7,3,30,3c3.3,0,6.2,1.9,7.6,4.7c0.6-0.3,1.3-0.4,2-0.4
		c3,0,5.4,2.4,5.4,5.4C45,14,44.5,15.2,43.6,16.2z"/>
</g>
</svg>
