<?xml version="1.0" encoding="utf-8"?>
<!-- Generator: Adobe Illustrator 18.0.0, SVG Export Plug-In . SVG Version: 6.00 Build 0)  -->
<!DOCTYPE svg PUBLIC "-//W3C//DTD SVG 1.1//EN" "http://www.w3.org/Graphics/SVG/1.1/DTD/svg11.dtd">
<svg version="1.1" id="Laag_1" xmlns="http://www.w3.org/2000/svg" xmlns:xlink="http://www.w3.org/1999/xlink" x="0px" y="0px"
	 viewBox="0 0 48 48" enable-background="new 0 0 48 48" xml:space="preserve">
<g>
	<path fill="#FFFFFF" d="M19.5,6C20.3,6,21,5.3,21,4.5v-3C21,0.7,20.3,0,19.5,0C18.7,0,18,0.7,18,1.5v3C18,5.3,18.7,6,19.5,6z"/>
	<path fill="#FFFFFF" d="M31.2,10l2.1-2.1c0.6-0.6,0.6-1.5,0-2.1c-0.6-0.6-1.5-0.6-2.1,0L29,7.8c-0.6,0.6-0.6,1.5,0,2.1
		C29.6,10.5,30.6,10.5,31.2,10z"/>
	<path fill="#FFFFFF" d="M1.5,21h3C5.3,21,6,20.3,6,19.5S5.3,18,4.5,18h-3C0.7,18,0,18.7,0,19.5S0.7,21,1.5,21z"/>
	<path fill="#FFFFFF" d="M33,19.5c0,0.8,0.7,1.5,1.5,1.5h3c0.8,0,1.5-0.7,1.5-1.5S38.3,18,37.5,18h-3C33.7,18,33,18.7,33,19.5z"/>
	<path fill="#FFFFFF" d="M7.8,10c0.6,0.6,1.5,0.6,2.1,0c0.6-0.6,0.6-1.5,0-2.1L7.8,5.7c-0.6-0.6-1.5-0.6-2.1,0
		c-0.6,0.6-0.6,1.5,0,2.1L7.8,10z"/>
	<path fill="#FFFFFF" d="M37.5,24c-0.5,0-1,0-1.5,0.1c-1.6-2.1-3.7-3.8-6-4.8C29.9,13.6,25.2,9,19.5,9C13.7,9,9,13.7,9,19.5
		c0,1.6,0.4,3.2,1.1,4.5C4.5,24.3,0,28.9,0,34.5C0,40.3,4.7,45,10.5,45c1.3,0,2.5-0.2,3.7-0.7c2.7,2.4,6.2,3.7,9.8,3.7
		c3.6,0,7.1-1.3,9.8-3.7c1.2,0.5,2.4,0.7,3.7,0.7C43.3,45,48,40.3,48,34.5C48,28.7,43.3,24,37.5,24z M19.5,12c3.7,0,6.8,2.7,7.4,6.3
		C25.9,18.1,25,18,24,18c-4.3,0-8.3,1.9-11.1,5c-0.6-1-0.9-2.2-0.9-3.5C12,15.4,15.4,12,19.5,12z M37.5,42c-1.6,0-3.1-0.5-4.3-1.4
		C31,43.3,27.7,45,24,45c-3.7,0-7-1.7-9.2-4.4c-1.2,0.9-2.7,1.4-4.3,1.4C6.4,42,3,38.6,3,34.5c0-4.1,3.4-7.5,7.5-7.5
		c0.7,0,1.4,0.1,2.1,0.3c0.3,0.1,0.5,0.1,0.8,0.2c0.4-0.8,0.9-1.5,1.5-2.2C17,22.7,20.3,21,24,21c0.9,0,1.9,0.1,2.7,0.3
		c1,0.2,1.9,0.6,2.8,1.1c2.2,1.2,4,3,5.1,5.2c0.9-0.4,1.8-0.6,2.9-0.6c4.1,0,7.5,3.4,7.5,7.5C45,38.6,41.6,42,37.5,42z"/>
</g>
</svg>
