<?xml version="1.0" encoding="utf-8"?>
<!-- Generator: Adobe Illustrator 18.0.0, SVG Export Plug-In . SVG Version: 6.00 Build 0)  -->
<!DOCTYPE svg PUBLIC "-//W3C//DTD SVG 1.1//EN" "http://www.w3.org/Graphics/SVG/1.1/DTD/svg11.dtd">
<svg version="1.1" id="Laag_1" xmlns="http://www.w3.org/2000/svg" xmlns:xlink="http://www.w3.org/1999/xlink" x="0px" y="0px"
	 viewBox="0 -11.8 47.8 47.8" enable-background="new 0 0 47.8 47.8" xml:space="preserve">
<g>
	<path fill-rule="evenodd" clip-rule="evenodd" fill="#FFFFFF" d="M3.2,18C3.1,17.5,3,17,3,16.5C3,12.4,6.4,9,10.5,9
		c1,0,2,0.2,2.9,0.6c2-3.9,6-6.6,10.6-6.6s8.7,2.7,10.6,6.6C35.5,9.2,36.5,9,37.5,9c4.1,0,7.5,3.4,7.5,7.5c0,0.5-0.1,1-0.2,1.5h3
		c0.1-0.5,0.2-1,0.2-1.5C48,10.7,43.3,6,37.5,6c-0.5,0-1,0-1.5,0.1C33.2,2.3,28.8,0,24,0s-9.2,2.3-12,6.1C11.5,6,11,6,10.5,6
		C4.7,6,0,10.7,0,16.5c0,0.5,0.1,1,0.2,1.5H3.2z"/>
	<path fill-rule="evenodd" clip-rule="evenodd" fill="#FFFFFF" d="M46.5,21h-45C0.7,21,0,21.7,0,22.5S0.7,24,1.5,24h45
		c0.8,0,1.5-0.7,1.5-1.5S47.3,21,46.5,21z"/>
	<path fill-rule="evenodd" clip-rule="evenodd" fill="#FFFFFF" d="M46.5,27h-45C0.7,27,0,27.7,0,28.5S0.7,30,1.5,30h45
		c0.8,0,1.5-0.7,1.5-1.5S47.3,27,46.5,27z"/>
	<path fill-rule="evenodd" clip-rule="evenodd" fill="#FFFFFF" d="M46.5,33h-45C0.7,33,0,33.7,0,34.5S0.7,36,1.5,36h45
		c0.8,0,1.5-0.7,1.5-1.5S47.3,33,46.5,33z"/>
</g>
</svg>
