<?xml version="1.0" encoding="utf-8"?>
<!-- Generator: Adobe Illustrator 18.0.0, SVG Export Plug-In . SVG Version: 6.00 Build 0)  -->
<!DOCTYPE svg PUBLIC "-//W3C//DTD SVG 1.1//EN" "http://www.w3.org/Graphics/SVG/1.1/DTD/svg11.dtd">
<svg version="1.1" id="Laag_1" xmlns="http://www.w3.org/2000/svg" xmlns:xlink="http://www.w3.org/1999/xlink" x="0px" y="0px"
	 viewBox="0 0 48 48" enable-background="new 0 0 48 48" xml:space="preserve">
<g>
	<path fill="#FFFFFF" d="M37.5,6c-0.5,0-1,0-1.5,0.1C33.2,2.3,28.8,0,24,0c-4.8,0-9.2,2.3-12,6.1C11.5,6,11,6,10.5,6
		C4.7,6,0,10.7,0,16.5S4.7,27,10.5,27c1.3,0,2.5-0.2,3.7-0.7c2.7,2.4,6.2,3.7,9.8,3.7c3.6,0,7.1-1.3,9.8-3.7
		c1.2,0.5,2.4,0.7,3.7,0.7C43.3,27,48,22.3,48,16.5S43.3,6,37.5,6z M37.5,24c-0.9,0-1.8-0.2-2.6-0.5l-1.7-0.6l-1.4,1.2
		C29.6,26,26.9,27,24,27c-2.9,0-5.6-1-7.8-2.9l-1.4-1.2l-1.7,0.6c-0.8,0.3-1.7,0.5-2.6,0.5C6.4,24,3,20.6,3,16.5S6.4,9,10.5,9
		c0.4,0,0.7,0,1.1,0.1l1.8,0.3l1.1-1.4C16.7,4.8,20.2,3,24,3c3.8,0,7.3,1.8,9.6,4.9l1.1,1.5l1.8-0.3C36.8,9,37.1,9,37.5,9
		c4.1,0,7.5,3.4,7.5,7.5S41.6,24,37.5,24z"/>
	<circle fill="#FFFFFF" cx="9" cy="33" r="3"/>
	<circle fill="#FFFFFF" cx="24" cy="36" r="3"/>
	<circle fill="#FFFFFF" cx="39" cy="33" r="3"/>
	<circle fill="#FFFFFF" cx="33" cy="45" r="3"/>
	<circle fill="#FFFFFF" cx="15" cy="45" r="3"/>
</g>
</svg>
